{
	"patcher" : 	{
		"fileversion" : 1,
		"appversion" : 		{
			"major" : 7,
			"minor" : 0,
			"revision" : 1,
			"architecture" : "x64",
			"modernui" : 1
		}
,
		"rect" : [ 67.0, 84.0, 1254.0, 894.0 ],
		"bglocked" : 0,
		"openinpresentation" : 0,
		"default_fontsize" : 12.0,
		"default_fontface" : 0,
		"default_fontname" : "Arial",
		"gridonopen" : 1,
		"gridsize" : [ 15.0, 15.0 ],
		"gridsnaponopen" : 1,
		"objectsnaponopen" : 1,
		"statusbarvisible" : 2,
		"toolbarvisible" : 1,
		"lefttoolbarpinned" : 0,
		"toptoolbarpinned" : 0,
		"righttoolbarpinned" : 0,
		"bottomtoolbarpinned" : 0,
		"toolbars_unpinned_last_save" : 0,
		"tallnewobj" : 0,
		"boxanimatetime" : 200,
		"enablehscroll" : 1,
		"enablevscroll" : 1,
		"devicewidth" : 0.0,
		"description" : "",
		"digest" : "",
		"tags" : "",
		"style" : "",
		"subpatcher_template" : "",
		"boxes" : [ 			{
				"box" : 				{
					"id" : "obj-487",
					"maxclass" : "newobj",
					"numinlets" : 1,
					"numoutlets" : 2,
					"outlettype" : [ "signal", "signal" ],
					"patching_rect" : [ 50.0, 102.5, 129.0, 22.0 ],
					"style" : "",
					"text" : "poly~ polygrain3~ 100"
				}

			}
, 			{
				"box" : 				{
					"color" : [ 0.113725, 0.580392, 0.737255, 1.0 ],
					"id" : "obj-263",
					"maxclass" : "newobj",
					"numinlets" : 0,
					"numoutlets" : 1,
					"outlettype" : [ "" ],
					"patching_rect" : [ 155.0, 394.5, 31.0, 22.0 ],
					"style" : "",
					"text" : "r go"
				}

			}
, 			{
				"box" : 				{
					"color" : [ 0.563004, 0.59431, 0.097419, 1.0 ],
					"id" : "obj-339",
					"maxclass" : "newobj",
					"numinlets" : 0,
					"numoutlets" : 1,
					"outlettype" : [ "" ],
					"patching_rect" : [ 854.0, 353.5, 85.0, 22.0 ],
					"style" : "",
					"text" : "r sample3End"
				}

			}
, 			{
				"box" : 				{
					"color" : [ 0.563004, 0.59431, 0.097419, 1.0 ],
					"id" : "obj-340",
					"maxclass" : "newobj",
					"numinlets" : 0,
					"numoutlets" : 1,
					"outlettype" : [ "" ],
					"patching_rect" : [ 638.5, 370.5, 89.0, 22.0 ],
					"style" : "",
					"text" : "r sample3Start"
				}

			}
, 			{
				"box" : 				{
					"color" : [ 0.563004, 0.59431, 0.097419, 1.0 ],
					"id" : "obj-341",
					"maxclass" : "newobj",
					"numinlets" : 0,
					"numoutlets" : 1,
					"outlettype" : [ "" ],
					"patching_rect" : [ 531.5, 652.0, 82.0, 22.0 ],
					"style" : "",
					"text" : "r grainMaxP3"
				}

			}
, 			{
				"box" : 				{
					"color" : [ 0.563004, 0.59431, 0.097419, 1.0 ],
					"id" : "obj-342",
					"maxclass" : "newobj",
					"numinlets" : 0,
					"numoutlets" : 1,
					"outlettype" : [ "" ],
					"patching_rect" : [ 421.0, 652.0, 79.0, 22.0 ],
					"style" : "",
					"text" : "r grainMinP3"
				}

			}
, 			{
				"box" : 				{
					"color" : [ 0.563004, 0.59431, 0.097419, 1.0 ],
					"id" : "obj-343",
					"maxclass" : "newobj",
					"numinlets" : 0,
					"numoutlets" : 1,
					"outlettype" : [ "" ],
					"patching_rect" : [ 414.5, 547.5, 79.0, 22.0 ],
					"style" : "",
					"text" : "r grainMinD3"
				}

			}
, 			{
				"box" : 				{
					"color" : [ 0.563004, 0.59431, 0.097419, 1.0 ],
					"id" : "obj-344",
					"maxclass" : "newobj",
					"numinlets" : 0,
					"numoutlets" : 1,
					"outlettype" : [ "" ],
					"patching_rect" : [ 525.0, 453.5, 83.0, 22.0 ],
					"style" : "",
					"text" : "r grainMaxR3"
				}

			}
, 			{
				"box" : 				{
					"color" : [ 0.563004, 0.59431, 0.097419, 1.0 ],
					"id" : "obj-345",
					"maxclass" : "newobj",
					"numinlets" : 0,
					"numoutlets" : 1,
					"outlettype" : [ "" ],
					"patching_rect" : [ 525.0, 547.5, 83.0, 22.0 ],
					"style" : "",
					"text" : "r grainMaxD3"
				}

			}
, 			{
				"box" : 				{
					"color" : [ 0.563004, 0.59431, 0.097419, 1.0 ],
					"id" : "obj-348",
					"maxclass" : "newobj",
					"numinlets" : 0,
					"numoutlets" : 1,
					"outlettype" : [ "" ],
					"patching_rect" : [ 414.5, 453.5, 79.0, 22.0 ],
					"style" : "",
					"text" : "r grainMinR3"
				}

			}
, 			{
				"box" : 				{
					"color" : [ 0.113725, 0.580392, 0.737255, 1.0 ],
					"id" : "obj-349",
					"maxclass" : "newobj",
					"numinlets" : 0,
					"numoutlets" : 1,
					"outlettype" : [ "" ],
					"patching_rect" : [ 899.5, 1271.5, 31.0, 22.0 ],
					"style" : "",
					"text" : "r go"
				}

			}
, 			{
				"box" : 				{
					"id" : "obj-350",
					"linecount" : 2,
					"maxclass" : "comment",
					"numinlets" : 1,
					"numoutlets" : 0,
					"patching_rect" : [ 899.5, 1433.5, 172.0, 34.0 ],
					"style" : "",
					"text" : "Randomises sample bank 3 end point"
				}

			}
, 			{
				"box" : 				{
					"color" : [ 0.563004, 0.59431, 0.097419, 1.0 ],
					"id" : "obj-352",
					"maxclass" : "newobj",
					"numinlets" : 1,
					"numoutlets" : 0,
					"patching_rect" : [ 899.5, 1402.5, 87.0, 22.0 ],
					"style" : "",
					"text" : "s sample3End"
				}

			}
, 			{
				"box" : 				{
					"id" : "obj-355",
					"linecount" : 2,
					"maxclass" : "comment",
					"numinlets" : 1,
					"numoutlets" : 0,
					"patching_rect" : [ 724.5, 1447.0, 166.0, 34.0 ],
					"style" : "",
					"text" : "Randomises sample bank 3 start point"
				}

			}
, 			{
				"box" : 				{
					"id" : "obj-356",
					"linecount" : 2,
					"maxclass" : "comment",
					"numinlets" : 1,
					"numoutlets" : 0,
					"patching_rect" : [ 517.0, 1191.5, 166.0, 34.0 ],
					"style" : "",
					"text" : "Randomises the delay time  value for audio Left bank 3"
				}

			}
, 			{
				"box" : 				{
					"color" : [ 0.563004, 0.59431, 0.097419, 1.0 ],
					"id" : "obj-359",
					"maxclass" : "newobj",
					"numinlets" : 1,
					"numoutlets" : 0,
					"patching_rect" : [ 724.5, 1417.5, 91.0, 22.0 ],
					"style" : "",
					"text" : "s sample3Start"
				}

			}
, 			{
				"box" : 				{
					"color" : [ 0.113725, 0.580392, 0.737255, 1.0 ],
					"id" : "obj-360",
					"maxclass" : "newobj",
					"numinlets" : 0,
					"numoutlets" : 1,
					"outlettype" : [ "" ],
					"patching_rect" : [ 724.5, 1266.5, 31.0, 22.0 ],
					"style" : "",
					"text" : "r go"
				}

			}
, 			{
				"box" : 				{
					"fontname" : "Arial",
					"fontsize" : 13.0,
					"id" : "obj-362",
					"maxclass" : "message",
					"numinlets" : 2,
					"numoutlets" : 1,
					"outlettype" : [ "" ],
					"patching_rect" : [ 804.5, 1384.5, 50.0, 23.0 ],
					"style" : "",
					"text" : "seed 0"
				}

			}
, 			{
				"box" : 				{
					"fontname" : "Arial",
					"fontsize" : 13.0,
					"id" : "obj-363",
					"maxclass" : "number",
					"numinlets" : 1,
					"numoutlets" : 2,
					"outlettype" : [ "", "bang" ],
					"parameter_enable" : 0,
					"patching_rect" : [ 724.5, 1378.0, 53.0, 23.0 ],
					"style" : ""
				}

			}
, 			{
				"box" : 				{
					"fontface" : 0,
					"fontname" : "Arial",
					"fontsize" : 13.0,
					"id" : "obj-364",
					"maxclass" : "newobj",
					"numinlets" : 2,
					"numoutlets" : 1,
					"outlettype" : [ "int" ],
					"patching_rect" : [ 724.5, 1338.0, 80.0, 23.0 ],
					"style" : "",
					"text" : "random 100"
				}

			}
, 			{
				"box" : 				{
					"id" : "obj-366",
					"maxclass" : "newobj",
					"numinlets" : 2,
					"numoutlets" : 1,
					"outlettype" : [ "bang" ],
					"patching_rect" : [ 724.5, 1298.0, 71.0, 22.0 ],
					"style" : "",
					"text" : "metro 2000"
				}

			}
, 			{
				"box" : 				{
					"color" : [ 0.563004, 0.59431, 0.097419, 1.0 ],
					"id" : "obj-367",
					"maxclass" : "newobj",
					"numinlets" : 1,
					"numoutlets" : 0,
					"patching_rect" : [ 520.0, 1160.0, 81.0, 22.0 ],
					"style" : "",
					"text" : "s delay3Time"
				}

			}
, 			{
				"box" : 				{
					"id" : "obj-368",
					"linecount" : 2,
					"maxclass" : "comment",
					"numinlets" : 1,
					"numoutlets" : 0,
					"patching_rect" : [ 894.5, 1225.0, 160.0, 34.0 ],
					"style" : "",
					"text" : "Randomises the grain pitch min value for sample bank 3"
				}

			}
, 			{
				"box" : 				{
					"color" : [ 0.563004, 0.59431, 0.097419, 1.0 ],
					"id" : "obj-369",
					"maxclass" : "newobj",
					"numinlets" : 1,
					"numoutlets" : 0,
					"patching_rect" : [ 894.5, 1191.5, 84.0, 22.0 ],
					"style" : "",
					"text" : "s grainMaxP3"
				}

			}
, 			{
				"box" : 				{
					"color" : [ 0.113725, 0.580392, 0.737255, 1.0 ],
					"id" : "obj-370",
					"maxclass" : "newobj",
					"numinlets" : 0,
					"numoutlets" : 1,
					"outlettype" : [ "" ],
					"patching_rect" : [ 894.5, 1013.5, 31.0, 22.0 ],
					"style" : "",
					"text" : "r go"
				}

			}
, 			{
				"box" : 				{
					"fontname" : "Arial",
					"fontsize" : 13.0,
					"id" : "obj-371",
					"maxclass" : "message",
					"numinlets" : 2,
					"numoutlets" : 1,
					"outlettype" : [ "" ],
					"patching_rect" : [ 940.0, 1084.5, 50.0, 23.0 ],
					"style" : "",
					"text" : "seed 0"
				}

			}
, 			{
				"box" : 				{
					"fontname" : "Arial",
					"fontsize" : 13.0,
					"id" : "obj-372",
					"maxclass" : "number",
					"numinlets" : 1,
					"numoutlets" : 2,
					"outlettype" : [ "", "bang" ],
					"parameter_enable" : 0,
					"patching_rect" : [ 894.5, 1155.5, 53.0, 23.0 ],
					"style" : ""
				}

			}
, 			{
				"box" : 				{
					"fontface" : 0,
					"fontname" : "Arial",
					"fontsize" : 13.0,
					"id" : "obj-373",
					"maxclass" : "newobj",
					"numinlets" : 2,
					"numoutlets" : 1,
					"outlettype" : [ "int" ],
					"patching_rect" : [ 894.5, 1114.0, 65.0, 23.0 ],
					"style" : "",
					"text" : "random 3"
				}

			}
, 			{
				"box" : 				{
					"id" : "obj-374",
					"maxclass" : "newobj",
					"numinlets" : 2,
					"numoutlets" : 1,
					"outlettype" : [ "bang" ],
					"patching_rect" : [ 894.5, 1056.5, 71.0, 22.0 ],
					"style" : "",
					"text" : "metro 1000"
				}

			}
, 			{
				"box" : 				{
					"id" : "obj-375",
					"linecount" : 2,
					"maxclass" : "comment",
					"numinlets" : 1,
					"numoutlets" : 0,
					"patching_rect" : [ 720.5, 1225.0, 160.0, 34.0 ],
					"style" : "",
					"text" : "Randomises the grain pitch min value for sample bank 3"
				}

			}
, 			{
				"box" : 				{
					"color" : [ 0.563004, 0.59431, 0.097419, 1.0 ],
					"id" : "obj-376",
					"maxclass" : "newobj",
					"numinlets" : 1,
					"numoutlets" : 0,
					"patching_rect" : [ 720.5, 1197.5, 81.0, 22.0 ],
					"style" : "",
					"text" : "s grainMinP3"
				}

			}
, 			{
				"box" : 				{
					"id" : "obj-377",
					"linecount" : 2,
					"maxclass" : "comment",
					"numinlets" : 1,
					"numoutlets" : 0,
					"patching_rect" : [ 693.0, 958.0, 175.0, 34.0 ],
					"style" : "",
					"text" : "Randomises the grain duration min value for sample bank 3"
				}

			}
, 			{
				"box" : 				{
					"color" : [ 0.113725, 0.580392, 0.737255, 1.0 ],
					"id" : "obj-378",
					"maxclass" : "newobj",
					"numinlets" : 0,
					"numoutlets" : 1,
					"outlettype" : [ "" ],
					"patching_rect" : [ 720.5, 749.5, 31.0, 22.0 ],
					"style" : "",
					"text" : "r go"
				}

			}
, 			{
				"box" : 				{
					"color" : [ 0.563004, 0.59431, 0.097419, 1.0 ],
					"id" : "obj-379",
					"maxclass" : "newobj",
					"numinlets" : 1,
					"numoutlets" : 0,
					"patching_rect" : [ 723.5, 931.5, 81.0, 22.0 ],
					"style" : "",
					"text" : "s grainMinD3"
				}

			}
, 			{
				"box" : 				{
					"fontname" : "Arial",
					"fontsize" : 13.0,
					"id" : "obj-380",
					"maxclass" : "message",
					"numinlets" : 2,
					"numoutlets" : 1,
					"outlettype" : [ "" ],
					"patching_rect" : [ 749.5, 784.5, 50.0, 23.0 ],
					"style" : "",
					"text" : "seed 0"
				}

			}
, 			{
				"box" : 				{
					"fontname" : "Arial",
					"fontsize" : 13.0,
					"id" : "obj-381",
					"maxclass" : "number",
					"numinlets" : 1,
					"numoutlets" : 2,
					"outlettype" : [ "", "bang" ],
					"parameter_enable" : 0,
					"patching_rect" : [ 723.5, 878.0, 53.0, 23.0 ],
					"style" : ""
				}

			}
, 			{
				"box" : 				{
					"fontface" : 0,
					"fontname" : "Arial",
					"fontsize" : 13.0,
					"id" : "obj-382",
					"maxclass" : "newobj",
					"numinlets" : 2,
					"numoutlets" : 1,
					"outlettype" : [ "int" ],
					"patching_rect" : [ 723.5, 852.0, 87.0, 23.0 ],
					"style" : "",
					"text" : "random 1000"
				}

			}
, 			{
				"box" : 				{
					"id" : "obj-383",
					"maxclass" : "newobj",
					"numinlets" : 2,
					"numoutlets" : 1,
					"outlettype" : [ "bang" ],
					"patching_rect" : [ 728.5, 814.5, 71.0, 22.0 ],
					"style" : "",
					"text" : "metro 2000"
				}

			}
, 			{
				"box" : 				{
					"id" : "obj-384",
					"linecount" : 3,
					"maxclass" : "comment",
					"numinlets" : 1,
					"numoutlets" : 0,
					"patching_rect" : [ 867.0, 958.0, 162.0, 48.0 ],
					"style" : "",
					"text" : "Randomises the grain duration max value for sample bank 3"
				}

			}
, 			{
				"box" : 				{
					"color" : [ 0.113725, 0.580392, 0.737255, 1.0 ],
					"id" : "obj-385",
					"maxclass" : "newobj",
					"numinlets" : 0,
					"numoutlets" : 1,
					"outlettype" : [ "" ],
					"patching_rect" : [ 894.5, 749.5, 31.0, 22.0 ],
					"style" : "",
					"text" : "r go"
				}

			}
, 			{
				"box" : 				{
					"color" : [ 0.563004, 0.59431, 0.097419, 1.0 ],
					"id" : "obj-386",
					"maxclass" : "newobj",
					"numinlets" : 1,
					"numoutlets" : 0,
					"patching_rect" : [ 897.5, 931.5, 85.0, 22.0 ],
					"style" : "",
					"text" : "s grainMaxD3"
				}

			}
, 			{
				"box" : 				{
					"fontname" : "Arial",
					"fontsize" : 13.0,
					"id" : "obj-387",
					"maxclass" : "message",
					"numinlets" : 2,
					"numoutlets" : 1,
					"outlettype" : [ "" ],
					"patching_rect" : [ 923.5, 784.5, 50.0, 23.0 ],
					"style" : "",
					"text" : "seed 0"
				}

			}
, 			{
				"box" : 				{
					"fontname" : "Arial",
					"fontsize" : 13.0,
					"id" : "obj-388",
					"maxclass" : "number",
					"numinlets" : 1,
					"numoutlets" : 2,
					"outlettype" : [ "", "bang" ],
					"parameter_enable" : 0,
					"patching_rect" : [ 897.5, 878.0, 53.0, 23.0 ],
					"style" : ""
				}

			}
, 			{
				"box" : 				{
					"fontface" : 0,
					"fontname" : "Arial",
					"fontsize" : 13.0,
					"id" : "obj-389",
					"maxclass" : "newobj",
					"numinlets" : 2,
					"numoutlets" : 1,
					"outlettype" : [ "int" ],
					"patching_rect" : [ 897.5, 852.0, 87.0, 23.0 ],
					"style" : "",
					"text" : "random 1000"
				}

			}
, 			{
				"box" : 				{
					"id" : "obj-390",
					"maxclass" : "newobj",
					"numinlets" : 2,
					"numoutlets" : 1,
					"outlettype" : [ "bang" ],
					"patching_rect" : [ 902.5, 814.5, 71.0, 22.0 ],
					"style" : "",
					"text" : "metro 2000"
				}

			}
, 			{
				"box" : 				{
					"color" : [ 0.113725, 0.580392, 0.737255, 1.0 ],
					"id" : "obj-391",
					"maxclass" : "newobj",
					"numinlets" : 0,
					"numoutlets" : 1,
					"outlettype" : [ "" ],
					"patching_rect" : [ 703.5, 477.692505, 31.0, 22.0 ],
					"style" : "",
					"text" : "r go"
				}

			}
, 			{
				"box" : 				{
					"color" : [ 0.113725, 0.580392, 0.737255, 1.0 ],
					"id" : "obj-392",
					"maxclass" : "newobj",
					"numinlets" : 0,
					"numoutlets" : 1,
					"outlettype" : [ "" ],
					"patching_rect" : [ 720.5, 1013.5, 31.0, 22.0 ],
					"style" : "",
					"text" : "r go"
				}

			}
, 			{
				"box" : 				{
					"color" : [ 0.113725, 0.580392, 0.737255, 1.0 ],
					"id" : "obj-393",
					"maxclass" : "newobj",
					"numinlets" : 0,
					"numoutlets" : 1,
					"outlettype" : [ "" ],
					"patching_rect" : [ 520.0, 978.5, 31.0, 22.0 ],
					"style" : "",
					"text" : "r go"
				}

			}
, 			{
				"box" : 				{
					"color" : [ 0.113725, 0.580392, 0.737255, 1.0 ],
					"id" : "obj-394",
					"maxclass" : "newobj",
					"numinlets" : 0,
					"numoutlets" : 1,
					"outlettype" : [ "" ],
					"patching_rect" : [ 834.5, 490.692505, 31.0, 22.0 ],
					"style" : "",
					"text" : "r go"
				}

			}
, 			{
				"box" : 				{
					"id" : "obj-395",
					"linecount" : 3,
					"maxclass" : "comment",
					"numinlets" : 1,
					"numoutlets" : 0,
					"patching_rect" : [ 690.5, 692.192627, 156.0, 48.0 ],
					"style" : "",
					"text" : "Randomises the grain rate min value for sample bank 3"
				}

			}
, 			{
				"box" : 				{
					"id" : "obj-396",
					"linecount" : 3,
					"maxclass" : "comment",
					"numinlets" : 1,
					"numoutlets" : 0,
					"patching_rect" : [ 840.0, 692.192627, 156.0, 48.0 ],
					"style" : "",
					"text" : "Randomises the grain rate max value for sample bank 3"
				}

			}
, 			{
				"box" : 				{
					"color" : [ 0.563004, 0.59431, 0.097419, 1.0 ],
					"id" : "obj-397",
					"maxclass" : "newobj",
					"numinlets" : 1,
					"numoutlets" : 0,
					"patching_rect" : [ 862.5, 663.692627, 85.0, 22.0 ],
					"style" : "",
					"text" : "s grainMaxR3"
				}

			}
, 			{
				"box" : 				{
					"fontname" : "Arial",
					"fontsize" : 13.0,
					"id" : "obj-398",
					"maxclass" : "message",
					"numinlets" : 2,
					"numoutlets" : 1,
					"outlettype" : [ "" ],
					"patching_rect" : [ 873.0, 499.692505, 50.0, 23.0 ],
					"style" : "",
					"text" : "seed 0"
				}

			}
, 			{
				"box" : 				{
					"fontname" : "Arial",
					"fontsize" : 13.0,
					"id" : "obj-399",
					"maxclass" : "number",
					"numinlets" : 1,
					"numoutlets" : 2,
					"outlettype" : [ "", "bang" ],
					"parameter_enable" : 0,
					"patching_rect" : [ 862.5, 613.192627, 53.0, 23.0 ],
					"style" : ""
				}

			}
, 			{
				"box" : 				{
					"fontface" : 0,
					"fontname" : "Arial",
					"fontsize" : 13.0,
					"id" : "obj-400",
					"maxclass" : "newobj",
					"numinlets" : 2,
					"numoutlets" : 1,
					"outlettype" : [ "int" ],
					"patching_rect" : [ 862.5, 574.192627, 87.0, 23.0 ],
					"style" : "",
					"text" : "random 1000"
				}

			}
, 			{
				"box" : 				{
					"id" : "obj-401",
					"maxclass" : "newobj",
					"numinlets" : 2,
					"numoutlets" : 1,
					"outlettype" : [ "bang" ],
					"patching_rect" : [ 862.5, 527.192505, 71.0, 22.0 ],
					"style" : "",
					"text" : "metro 2000"
				}

			}
, 			{
				"box" : 				{
					"color" : [ 0.563004, 0.59431, 0.097419, 1.0 ],
					"id" : "obj-402",
					"maxclass" : "newobj",
					"numinlets" : 1,
					"numoutlets" : 0,
					"patching_rect" : [ 706.5, 659.692627, 81.0, 22.0 ],
					"style" : "",
					"text" : "s grainMinR3"
				}

			}
, 			{
				"box" : 				{
					"fontname" : "Arial",
					"fontsize" : 13.0,
					"id" : "obj-403",
					"maxclass" : "message",
					"numinlets" : 2,
					"numoutlets" : 1,
					"outlettype" : [ "" ],
					"patching_rect" : [ 970.0, 1305.0, 50.0, 23.0 ],
					"style" : "",
					"text" : "seed 0"
				}

			}
, 			{
				"box" : 				{
					"fontname" : "Arial",
					"fontsize" : 13.0,
					"id" : "obj-404",
					"maxclass" : "number",
					"numinlets" : 1,
					"numoutlets" : 2,
					"outlettype" : [ "", "bang" ],
					"parameter_enable" : 0,
					"patching_rect" : [ 899.5, 1368.0, 53.0, 23.0 ],
					"style" : ""
				}

			}
, 			{
				"box" : 				{
					"fontface" : 0,
					"fontname" : "Arial",
					"fontsize" : 13.0,
					"id" : "obj-405",
					"maxclass" : "newobj",
					"numinlets" : 2,
					"numoutlets" : 1,
					"outlettype" : [ "int" ],
					"patching_rect" : [ 899.5, 1333.5, 94.0, 23.0 ],
					"style" : "",
					"text" : "random 64000"
				}

			}
, 			{
				"box" : 				{
					"id" : "obj-406",
					"maxclass" : "newobj",
					"numinlets" : 2,
					"numoutlets" : 1,
					"outlettype" : [ "bang" ],
					"patching_rect" : [ 899.5, 1305.0, 71.0, 22.0 ],
					"style" : "",
					"text" : "metro 2000"
				}

			}
, 			{
				"box" : 				{
					"fontname" : "Arial",
					"fontsize" : 13.0,
					"id" : "obj-407",
					"maxclass" : "message",
					"numinlets" : 2,
					"numoutlets" : 1,
					"outlettype" : [ "" ],
					"patching_rect" : [ 520.0, 1004.5, 50.0, 23.0 ],
					"style" : "",
					"text" : "seed 0"
				}

			}
, 			{
				"box" : 				{
					"fontname" : "Arial",
					"fontsize" : 13.0,
					"id" : "obj-408",
					"maxclass" : "number",
					"numinlets" : 1,
					"numoutlets" : 2,
					"outlettype" : [ "", "bang" ],
					"parameter_enable" : 0,
					"patching_rect" : [ 520.0, 1125.0, 53.0, 23.0 ],
					"style" : ""
				}

			}
, 			{
				"box" : 				{
					"fontface" : 0,
					"fontname" : "Arial",
					"fontsize" : 13.0,
					"id" : "obj-409",
					"maxclass" : "newobj",
					"numinlets" : 2,
					"numoutlets" : 1,
					"outlettype" : [ "int" ],
					"patching_rect" : [ 520.0, 1088.5, 87.0, 23.0 ],
					"style" : "",
					"text" : "random 3000"
				}

			}
, 			{
				"box" : 				{
					"id" : "obj-410",
					"maxclass" : "newobj",
					"numinlets" : 2,
					"numoutlets" : 1,
					"outlettype" : [ "bang" ],
					"patching_rect" : [ 520.0, 1026.5, 71.0, 22.0 ],
					"style" : "",
					"text" : "metro 2000"
				}

			}
, 			{
				"box" : 				{
					"fontname" : "Arial",
					"fontsize" : 13.0,
					"id" : "obj-411",
					"maxclass" : "message",
					"numinlets" : 2,
					"numoutlets" : 1,
					"outlettype" : [ "" ],
					"patching_rect" : [ 766.0, 1084.5, 50.0, 23.0 ],
					"style" : "",
					"text" : "seed 0"
				}

			}
, 			{
				"box" : 				{
					"fontname" : "Arial",
					"fontsize" : 13.0,
					"id" : "obj-412",
					"maxclass" : "number",
					"numinlets" : 1,
					"numoutlets" : 2,
					"outlettype" : [ "", "bang" ],
					"parameter_enable" : 0,
					"patching_rect" : [ 720.5, 1145.5, 53.0, 23.0 ],
					"style" : ""
				}

			}
, 			{
				"box" : 				{
					"fontface" : 0,
					"fontname" : "Arial",
					"fontsize" : 13.0,
					"id" : "obj-413",
					"maxclass" : "newobj",
					"numinlets" : 2,
					"numoutlets" : 1,
					"outlettype" : [ "int" ],
					"patching_rect" : [ 720.5, 1114.0, 65.0, 23.0 ],
					"style" : "",
					"text" : "random 3"
				}

			}
, 			{
				"box" : 				{
					"id" : "obj-414",
					"maxclass" : "newobj",
					"numinlets" : 2,
					"numoutlets" : 1,
					"outlettype" : [ "bang" ],
					"patching_rect" : [ 720.5, 1056.5, 71.0, 22.0 ],
					"style" : "",
					"text" : "metro 2000"
				}

			}
, 			{
				"box" : 				{
					"fontname" : "Arial",
					"fontsize" : 13.0,
					"id" : "obj-415",
					"maxclass" : "message",
					"numinlets" : 2,
					"numoutlets" : 1,
					"outlettype" : [ "" ],
					"patching_rect" : [ 732.5, 512.692505, 50.0, 23.0 ],
					"style" : "",
					"text" : "seed 0"
				}

			}
, 			{
				"box" : 				{
					"fontname" : "Arial",
					"fontsize" : 13.0,
					"id" : "obj-416",
					"maxclass" : "number",
					"numinlets" : 1,
					"numoutlets" : 2,
					"outlettype" : [ "", "bang" ],
					"parameter_enable" : 0,
					"patching_rect" : [ 706.5, 606.192627, 53.0, 23.0 ],
					"style" : ""
				}

			}
, 			{
				"box" : 				{
					"fontface" : 0,
					"fontname" : "Arial",
					"fontsize" : 13.0,
					"id" : "obj-417",
					"maxclass" : "newobj",
					"numinlets" : 2,
					"numoutlets" : 1,
					"outlettype" : [ "int" ],
					"patching_rect" : [ 706.5, 580.192627, 87.0, 23.0 ],
					"style" : "",
					"text" : "random 1000"
				}

			}
, 			{
				"box" : 				{
					"id" : "obj-418",
					"maxclass" : "newobj",
					"numinlets" : 2,
					"numoutlets" : 1,
					"outlettype" : [ "bang" ],
					"patching_rect" : [ 711.5, 542.692505, 71.0, 22.0 ],
					"style" : "",
					"text" : "metro 2000"
				}

			}
, 			{
				"box" : 				{
					"color" : [ 0.113725, 0.580392, 0.737255, 1.0 ],
					"id" : "obj-419",
					"maxclass" : "newobj",
					"numinlets" : 0,
					"numoutlets" : 1,
					"outlettype" : [ "" ],
					"patching_rect" : [ 158.0, 143.5, 31.0, 22.0 ],
					"style" : "",
					"text" : "r go"
				}

			}
, 			{
				"box" : 				{
					"fontname" : "Arial",
					"fontsize" : 12.0,
					"id" : "obj-424",
					"maxclass" : "message",
					"numinlets" : 2,
					"numoutlets" : 1,
					"outlettype" : [ "" ],
					"patching_rect" : [ 748.0, 199.5, 41.0, 22.0 ],
					"style" : "",
					"text" : "0 500"
				}

			}
, 			{
				"box" : 				{
					"fontname" : "Arial",
					"fontsize" : 12.0,
					"id" : "obj-425",
					"maxclass" : "newobj",
					"numinlets" : 1,
					"numoutlets" : 1,
					"outlettype" : [ "bang" ],
					"patching_rect" : [ 748.0, 168.5, 60.0, 22.0 ],
					"style" : "",
					"text" : "loadbang"
				}

			}
, 			{
				"box" : 				{
					"fontname" : "Arial",
					"fontsize" : 11.595187,
					"id" : "obj-428",
					"linecount" : 2,
					"maxclass" : "comment",
					"numinlets" : 1,
					"numoutlets" : 0,
					"patching_rect" : [ 142.0, 359.5, 113.0, 33.0 ],
					"style" : "",
					"text" : "Enables multiple threads"
				}

			}
, 			{
				"box" : 				{
					"fontname" : "Arial",
					"fontsize" : 12.0,
					"id" : "obj-429",
					"maxclass" : "message",
					"numinlets" : 2,
					"numoutlets" : 1,
					"outlettype" : [ "" ],
					"patching_rect" : [ 155.0, 422.5, 64.0, 22.0 ],
					"style" : "",
					"text" : "parallel $1"
				}

			}
, 			{
				"box" : 				{
					"fontname" : "Arial",
					"fontsize" : 12.0,
					"id" : "obj-430",
					"maxclass" : "message",
					"numinlets" : 2,
					"numoutlets" : 1,
					"outlettype" : [ "" ],
					"patching_rect" : [ 893.0, 139.5, 50.0, 22.0 ],
					"style" : "",
					"text" : "replace"
				}

			}
, 			{
				"box" : 				{
					"fontname" : "Arial",
					"fontsize" : 12.0,
					"id" : "obj-431",
					"maxclass" : "comment",
					"numinlets" : 1,
					"numoutlets" : 0,
					"patching_rect" : [ 312.0, 205.5, 117.0, 20.0 ],
					"style" : "",
					"text" : "Schedule next grain"
				}

			}
, 			{
				"box" : 				{
					"bgcolor" : [ 0.960784, 0.827451, 0.156863, 0.0 ],
					"fontname" : "Arial",
					"fontsize" : 12.0,
					"id" : "obj-432",
					"maxclass" : "comment",
					"numinlets" : 1,
					"numoutlets" : 0,
					"patching_rect" : [ 596.0, 761.5, 75.0, 20.0 ],
					"style" : "",
					"text" : "Grain slope:"
				}

			}
, 			{
				"box" : 				{
					"bgcolor" : [ 0.960784, 0.827451, 0.156863, 0.0 ],
					"fontname" : "Arial",
					"fontsize" : 12.0,
					"id" : "obj-433",
					"maxclass" : "comment",
					"numinlets" : 1,
					"numoutlets" : 0,
					"patching_rect" : [ 551.0, 784.5, 37.0, 20.0 ],
					"style" : "",
					"text" : "max."
				}

			}
, 			{
				"box" : 				{
					"bgcolor" : [ 0.960784, 0.827451, 0.156863, 0.0 ],
					"fontname" : "Arial",
					"fontsize" : 12.0,
					"id" : "obj-434",
					"maxclass" : "comment",
					"numinlets" : 1,
					"numoutlets" : 0,
					"patching_rect" : [ 447.0, 784.5, 33.0, 20.0 ],
					"style" : "",
					"text" : "min."
				}

			}
, 			{
				"box" : 				{
					"bgcolor" : [ 0.960784, 0.827451, 0.156863, 0.0 ],
					"fontname" : "Arial",
					"fontsize" : 12.0,
					"id" : "obj-435",
					"maxclass" : "comment",
					"numinlets" : 1,
					"numoutlets" : 0,
					"patching_rect" : [ 580.0, 485.5, 37.0, 20.0 ],
					"style" : "",
					"text" : "max."
				}

			}
, 			{
				"box" : 				{
					"bgcolor" : [ 0.960784, 0.827451, 0.156863, 0.0 ],
					"fontname" : "Arial",
					"fontsize" : 12.0,
					"id" : "obj-436",
					"maxclass" : "comment",
					"numinlets" : 1,
					"numoutlets" : 0,
					"patching_rect" : [ 476.0, 485.5, 33.0, 20.0 ],
					"style" : "",
					"text" : "min."
				}

			}
, 			{
				"box" : 				{
					"bgcolor" : [ 0.960784, 0.827451, 0.156863, 0.0 ],
					"fontname" : "Arial",
					"fontsize" : 12.0,
					"id" : "obj-437",
					"maxclass" : "comment",
					"numinlets" : 1,
					"numoutlets" : 0,
					"patching_rect" : [ 338.0, 453.5, 65.0, 20.0 ],
					"style" : "",
					"text" : "Grain rate:"
				}

			}
, 			{
				"box" : 				{
					"bgcolor" : [ 0.960784, 0.827451, 0.156863, 0.0 ],
					"fontname" : "Arial",
					"fontsize" : 12.0,
					"id" : "obj-438",
					"maxclass" : "comment",
					"numinlets" : 1,
					"numoutlets" : 0,
					"patching_rect" : [ 586.5, 687.5, 37.0, 20.0 ],
					"style" : "",
					"text" : "max."
				}

			}
, 			{
				"box" : 				{
					"bgcolor" : [ 0.960784, 0.827451, 0.156863, 0.0 ],
					"fontname" : "Arial",
					"fontsize" : 12.0,
					"id" : "obj-439",
					"maxclass" : "comment",
					"numinlets" : 1,
					"numoutlets" : 0,
					"patching_rect" : [ 482.5, 687.5, 33.0, 20.0 ],
					"style" : "",
					"text" : "min."
				}

			}
, 			{
				"box" : 				{
					"bgcolor" : [ 0.960784, 0.827451, 0.156863, 0.0 ],
					"fontname" : "Arial",
					"fontsize" : 12.0,
					"id" : "obj-440",
					"maxclass" : "comment",
					"numinlets" : 1,
					"numoutlets" : 0,
					"patching_rect" : [ 338.0, 652.0, 72.0, 20.0 ],
					"style" : "",
					"text" : "Grain pitch:"
				}

			}
, 			{
				"box" : 				{
					"bgcolor" : [ 0.960784, 0.827451, 0.156863, 0.0 ],
					"fontname" : "Arial",
					"fontsize" : 12.0,
					"id" : "obj-441",
					"maxclass" : "comment",
					"numinlets" : 1,
					"numoutlets" : 0,
					"patching_rect" : [ 580.0, 585.5, 37.0, 20.0 ],
					"style" : "",
					"text" : "max."
				}

			}
, 			{
				"box" : 				{
					"bgcolor" : [ 0.960784, 0.827451, 0.156863, 0.0 ],
					"fontname" : "Arial",
					"fontsize" : 12.0,
					"id" : "obj-442",
					"maxclass" : "comment",
					"numinlets" : 1,
					"numoutlets" : 0,
					"patching_rect" : [ 476.0, 585.5, 33.0, 20.0 ],
					"style" : "",
					"text" : "min."
				}

			}
, 			{
				"box" : 				{
					"fontname" : "Arial",
					"fontsize" : 12.0,
					"id" : "obj-443",
					"maxclass" : "comment",
					"numinlets" : 1,
					"numoutlets" : 0,
					"patching_rect" : [ 586.0, 353.5, 113.0, 20.0 ],
					"style" : "",
					"text" : "Selection start/end:"
				}

			}
, 			{
				"box" : 				{
					"fontname" : "Arial",
					"fontsize" : 12.0,
					"format" : 6,
					"id" : "obj-444",
					"maxclass" : "flonum",
					"numinlets" : 1,
					"numoutlets" : 2,
					"outlettype" : [ "", "bang" ],
					"parameter_enable" : 0,
					"patching_rect" : [ 525.0, 485.5, 50.0, 22.0 ],
					"style" : ""
				}

			}
, 			{
				"box" : 				{
					"fontname" : "Arial",
					"fontsize" : 12.0,
					"format" : 6,
					"id" : "obj-445",
					"maxclass" : "flonum",
					"numinlets" : 1,
					"numoutlets" : 2,
					"outlettype" : [ "", "bang" ],
					"parameter_enable" : 0,
					"patching_rect" : [ 414.5, 485.5, 50.0, 22.0 ],
					"style" : ""
				}

			}
, 			{
				"box" : 				{
					"fontname" : "Arial",
					"fontsize" : 12.0,
					"format" : 6,
					"id" : "obj-446",
					"maxclass" : "flonum",
					"numinlets" : 1,
					"numoutlets" : 2,
					"outlettype" : [ "", "bang" ],
					"parameter_enable" : 0,
					"patching_rect" : [ 525.0, 585.5, 50.0, 22.0 ],
					"style" : ""
				}

			}
, 			{
				"box" : 				{
					"fontname" : "Arial",
					"fontsize" : 12.0,
					"format" : 6,
					"id" : "obj-447",
					"maxclass" : "flonum",
					"numinlets" : 1,
					"numoutlets" : 2,
					"outlettype" : [ "", "bang" ],
					"parameter_enable" : 0,
					"patching_rect" : [ 414.5, 585.5, 50.0, 22.0 ],
					"style" : ""
				}

			}
, 			{
				"box" : 				{
					"fontname" : "Arial",
					"fontsize" : 12.0,
					"format" : 6,
					"id" : "obj-448",
					"maxclass" : "flonum",
					"maximum" : 1.0,
					"minimum" : 0.0,
					"numinlets" : 1,
					"numoutlets" : 2,
					"outlettype" : [ "", "bang" ],
					"parameter_enable" : 0,
					"patching_rect" : [ 596.0, 784.5, 50.0, 22.0 ],
					"style" : ""
				}

			}
, 			{
				"box" : 				{
					"fontname" : "Arial",
					"fontsize" : 12.0,
					"id" : "obj-449",
					"maxclass" : "newobj",
					"numinlets" : 1,
					"numoutlets" : 0,
					"patching_rect" : [ 596.0, 815.5, 69.0, 22.0 ],
					"style" : "",
					"text" : "send slope"
				}

			}
, 			{
				"box" : 				{
					"fontname" : "Arial",
					"fontsize" : 12.0,
					"format" : 6,
					"id" : "obj-450",
					"maxclass" : "flonum",
					"numinlets" : 1,
					"numoutlets" : 2,
					"outlettype" : [ "", "bang" ],
					"parameter_enable" : 0,
					"patching_rect" : [ 496.0, 784.5, 50.0, 22.0 ],
					"style" : ""
				}

			}
, 			{
				"box" : 				{
					"fontname" : "Arial",
					"fontsize" : 12.0,
					"format" : 6,
					"id" : "obj-451",
					"maxclass" : "flonum",
					"numinlets" : 1,
					"numoutlets" : 2,
					"outlettype" : [ "", "bang" ],
					"parameter_enable" : 0,
					"patching_rect" : [ 393.0, 784.5, 50.0, 22.0 ],
					"style" : ""
				}

			}
, 			{
				"box" : 				{
					"fontname" : "Arial",
					"fontsize" : 12.0,
					"id" : "obj-452",
					"maxclass" : "newobj",
					"numinlets" : 1,
					"numoutlets" : 0,
					"patching_rect" : [ 496.0, 815.5, 86.0, 22.0 ],
					"style" : "",
					"text" : "send ampmax"
				}

			}
, 			{
				"box" : 				{
					"fontname" : "Arial",
					"fontsize" : 12.0,
					"id" : "obj-453",
					"maxclass" : "newobj",
					"numinlets" : 1,
					"numoutlets" : 0,
					"patching_rect" : [ 393.0, 815.5, 83.0, 22.0 ],
					"style" : "",
					"text" : "send ampmin"
				}

			}
, 			{
				"box" : 				{
					"fontname" : "Arial",
					"fontsize" : 12.0,
					"id" : "obj-454",
					"maxclass" : "newobj",
					"numinlets" : 1,
					"numoutlets" : 1,
					"outlettype" : [ "bang" ],
					"patching_rect" : [ 55.5, 334.5, 60.0, 22.0 ],
					"style" : "",
					"text" : "loadbang"
				}

			}
, 			{
				"box" : 				{
					"cantchange" : 1,
					"fontname" : "Arial",
					"fontsize" : 12.0,
					"format" : 6,
					"id" : "obj-455",
					"maxclass" : "flonum",
					"numinlets" : 1,
					"numoutlets" : 2,
					"outlettype" : [ "", "bang" ],
					"parameter_enable" : 0,
					"patching_rect" : [ 700.800049, 367.5, 50.0, 22.0 ],
					"style" : "",
					"triangle" : 0
				}

			}
, 			{
				"box" : 				{
					"cantchange" : 1,
					"fontname" : "Arial",
					"fontsize" : 12.0,
					"format" : 6,
					"id" : "obj-456",
					"maxclass" : "flonum",
					"numinlets" : 1,
					"numoutlets" : 2,
					"outlettype" : [ "", "bang" ],
					"parameter_enable" : 0,
					"patching_rect" : [ 793.0, 359.5, 50.0, 22.0 ],
					"style" : "",
					"triangle" : 0
				}

			}
, 			{
				"box" : 				{
					"fontname" : "Arial",
					"fontsize" : 12.0,
					"id" : "obj-457",
					"maxclass" : "message",
					"numinlets" : 2,
					"numoutlets" : 1,
					"outlettype" : [ "" ],
					"patching_rect" : [ 55.5, 367.5, 46.0, 22.0 ],
					"style" : "",
					"text" : "steal 1"
				}

			}
, 			{
				"box" : 				{
					"fontname" : "Arial",
					"fontsize" : 12.0,
					"format" : 6,
					"id" : "obj-458",
					"maxclass" : "flonum",
					"numinlets" : 1,
					"numoutlets" : 2,
					"outlettype" : [ "", "bang" ],
					"parameter_enable" : 0,
					"patching_rect" : [ 158.0, 278.5, 70.0, 22.0 ],
					"style" : ""
				}

			}
, 			{
				"box" : 				{
					"fontname" : "Arial",
					"fontsize" : 12.0,
					"id" : "obj-459",
					"maxclass" : "newobj",
					"numinlets" : 6,
					"numoutlets" : 1,
					"outlettype" : [ "" ],
					"patching_rect" : [ 240.0, 274.5, 171.0, 22.0 ],
					"style" : "",
					"text" : "scale 0 9999 0. 1."
				}

			}
, 			{
				"box" : 				{
					"fontname" : "Arial",
					"fontsize" : 12.0,
					"id" : "obj-460",
					"maxclass" : "newobj",
					"numinlets" : 2,
					"numoutlets" : 1,
					"outlettype" : [ "int" ],
					"patching_rect" : [ 240.0, 229.5, 88.0, 22.0 ],
					"style" : "",
					"text" : "random 10000"
				}

			}
, 			{
				"box" : 				{
					"fontname" : "Arial",
					"fontsize" : 12.0,
					"id" : "obj-461",
					"maxclass" : "newobj",
					"numinlets" : 0,
					"numoutlets" : 1,
					"outlettype" : [ "" ],
					"patching_rect" : [ 362.0, 251.5, 108.0, 22.0 ],
					"style" : "",
					"text" : "receive speedmax"
				}

			}
, 			{
				"box" : 				{
					"fontname" : "Arial",
					"fontsize" : 12.0,
					"id" : "obj-462",
					"maxclass" : "newobj",
					"numinlets" : 0,
					"numoutlets" : 1,
					"outlettype" : [ "" ],
					"patching_rect" : [ 331.0, 229.5, 105.0, 22.0 ],
					"style" : "",
					"text" : "receive speedmin"
				}

			}
, 			{
				"box" : 				{
					"fontname" : "Arial",
					"fontsize" : 12.0,
					"id" : "obj-463",
					"maxclass" : "newobj",
					"numinlets" : 1,
					"numoutlets" : 0,
					"patching_rect" : [ 525.0, 515.5, 95.0, 22.0 ],
					"style" : "",
					"text" : "send speedmax"
				}

			}
, 			{
				"box" : 				{
					"fontname" : "Arial",
					"fontsize" : 12.0,
					"id" : "obj-464",
					"maxclass" : "newobj",
					"numinlets" : 1,
					"numoutlets" : 0,
					"patching_rect" : [ 414.5, 515.5, 92.0, 22.0 ],
					"style" : "",
					"text" : "send speedmin"
				}

			}
, 			{
				"box" : 				{
					"fontname" : "Arial",
					"fontsize" : 12.0,
					"id" : "obj-465",
					"maxclass" : "newobj",
					"numinlets" : 1,
					"numoutlets" : 1,
					"outlettype" : [ "" ],
					"patching_rect" : [ 158.0, 229.5, 81.0, 22.0 ],
					"style" : "",
					"text" : "prepend note"
				}

			}
, 			{
				"box" : 				{
					"fontface" : 0,
					"fontname" : "Arial",
					"fontsize" : 12.0,
					"id" : "obj-466",
					"maxclass" : "newobj",
					"numinlets" : 2,
					"numoutlets" : 1,
					"outlettype" : [ "bang" ],
					"patching_rect" : [ 158.0, 184.5, 65.0, 22.0 ],
					"style" : "",
					"text" : "metro 200"
				}

			}
, 			{
				"box" : 				{
					"fontname" : "Arial",
					"fontsize" : 12.0,
					"id" : "obj-467",
					"maxclass" : "newobj",
					"numinlets" : 1,
					"numoutlets" : 0,
					"patching_rect" : [ 531.5, 720.5, 68.0, 22.0 ],
					"style" : "",
					"text" : "s pitchmax"
				}

			}
, 			{
				"box" : 				{
					"fontname" : "Arial",
					"fontsize" : 12.0,
					"format" : 6,
					"id" : "obj-468",
					"maxclass" : "flonum",
					"numinlets" : 1,
					"numoutlets" : 2,
					"outlettype" : [ "", "bang" ],
					"parameter_enable" : 0,
					"patching_rect" : [ 531.5, 687.5, 50.0, 22.0 ],
					"style" : ""
				}

			}
, 			{
				"box" : 				{
					"fontname" : "Arial",
					"fontsize" : 12.0,
					"id" : "obj-469",
					"maxclass" : "newobj",
					"numinlets" : 1,
					"numoutlets" : 0,
					"patching_rect" : [ 421.0, 720.5, 65.0, 22.0 ],
					"style" : "",
					"text" : "s pitchmin"
				}

			}
, 			{
				"box" : 				{
					"fontname" : "Arial",
					"fontsize" : 12.0,
					"format" : 6,
					"id" : "obj-470",
					"maxclass" : "flonum",
					"numinlets" : 1,
					"numoutlets" : 2,
					"outlettype" : [ "", "bang" ],
					"parameter_enable" : 0,
					"patching_rect" : [ 421.0, 687.5, 50.0, 22.0 ],
					"style" : ""
				}

			}
, 			{
				"box" : 				{
					"fontname" : "Arial",
					"fontsize" : 12.0,
					"id" : "obj-471",
					"maxclass" : "newobj",
					"numinlets" : 1,
					"numoutlets" : 0,
					"patching_rect" : [ 525.0, 617.5, 95.0, 22.0 ],
					"style" : "",
					"text" : "send lengthmax"
				}

			}
, 			{
				"box" : 				{
					"fontname" : "Arial",
					"fontsize" : 12.0,
					"id" : "obj-472",
					"maxclass" : "newobj",
					"numinlets" : 1,
					"numoutlets" : 0,
					"patching_rect" : [ 414.5, 617.5, 92.0, 22.0 ],
					"style" : "",
					"text" : "send lengthmin"
				}

			}
, 			{
				"box" : 				{
					"fontname" : "Arial",
					"fontsize" : 12.0,
					"id" : "obj-473",
					"maxclass" : "newobj",
					"numinlets" : 1,
					"numoutlets" : 0,
					"patching_rect" : [ 793.0, 401.5, 75.0, 22.0 ],
					"style" : "",
					"text" : "send selend"
				}

			}
, 			{
				"box" : 				{
					"fontname" : "Arial",
					"fontsize" : 12.0,
					"id" : "obj-474",
					"maxclass" : "newobj",
					"numinlets" : 1,
					"numoutlets" : 0,
					"patching_rect" : [ 700.800049, 408.5, 79.0, 22.0 ],
					"style" : "",
					"text" : "send selstart"
				}

			}
, 			{
				"box" : 				{
					"fontname" : "Arial",
					"fontsize" : 12.0,
					"id" : "obj-475",
					"maxclass" : "message",
					"numinlets" : 2,
					"numoutlets" : 1,
					"outlettype" : [ "" ],
					"patching_rect" : [ 493.0, 274.5, 161.0, 22.0 ],
					"style" : "",
					"text" : "set thegrain3 2, mode select"
				}

			}
, 			{
				"box" : 				{
					"fontname" : "Arial",
					"fontsize" : 12.0,
					"id" : "obj-476",
					"maxclass" : "message",
					"numinlets" : 2,
					"numoutlets" : 1,
					"outlettype" : [ "" ],
					"patching_rect" : [ 493.0, 196.166626, 161.0, 22.0 ],
					"style" : "",
					"text" : "set thegrain3 1, mode select"
				}

			}
, 			{
				"box" : 				{
					"bgcolor" : [ 0.311041, 0.314599, 0.318357, 1.0 ],
					"buffername" : "thegrain3",
					"chanoffset" : 2,
					"gridcolor" : [ 0.870588, 0.415686, 0.062745, 1.0 ],
					"id" : "obj-477",
					"maxclass" : "waveform~",
					"numinlets" : 5,
					"numoutlets" : 6,
					"outlettype" : [ "float", "float", "float", "float", "list", "" ],
					"patching_rect" : [ 562.0, 300.5, 395.0, 51.0 ],
					"selectioncolor" : [ 0.0, 0.372, 1.0, 0.5 ],
					"setmode" : 1,
					"style" : "",
					"waveformcolor" : [ 0.439216, 0.74902, 0.254902, 1.0 ]
				}

			}
, 			{
				"box" : 				{
					"bgcolor" : [ 0.311041, 0.314599, 0.318357, 1.0 ],
					"buffername" : "thegrain3",
					"gridcolor" : [ 0.870588, 0.415686, 0.062745, 1.0 ],
					"id" : "obj-478",
					"maxclass" : "waveform~",
					"numinlets" : 5,
					"numoutlets" : 6,
					"outlettype" : [ "float", "float", "float", "float", "list", "" ],
					"patching_rect" : [ 569.0, 229.5, 388.0, 44.0 ],
					"selectioncolor" : [ 0.0, 0.372, 1.0, 0.5 ],
					"setmode" : 1,
					"style" : "",
					"waveformcolor" : [ 0.439216, 0.74902, 0.254902, 1.0 ]
				}

			}
, 			{
				"box" : 				{
					"fontname" : "Arial",
					"fontsize" : 12.0,
					"id" : "obj-479",
					"maxclass" : "message",
					"numinlets" : 2,
					"numoutlets" : 1,
					"outlettype" : [ "" ],
					"patching_rect" : [ 702.0, 129.5, 116.0, 22.0 ],
					"style" : "",
					"text" : "replace trafford.wav"
				}

			}
, 			{
				"box" : 				{
					"fontname" : "Arial",
					"fontsize" : 12.0,
					"id" : "obj-480",
					"maxclass" : "message",
					"numinlets" : 2,
					"numoutlets" : 1,
					"outlettype" : [ "" ],
					"patching_rect" : [ 507.0, 129.5, 116.0, 22.0 ],
					"style" : "",
					"text" : "replace trafford.wav"
				}

			}
, 			{
				"box" : 				{
					"fontname" : "Arial",
					"fontsize" : 12.0,
					"id" : "obj-481",
					"maxclass" : "newobj",
					"numinlets" : 1,
					"numoutlets" : 1,
					"outlettype" : [ "bang" ],
					"patching_rect" : [ 593.0, 102.5, 60.0, 22.0 ],
					"style" : "",
					"text" : "loadbang"
				}

			}
, 			{
				"box" : 				{
					"fontface" : 0,
					"fontname" : "Arial",
					"fontsize" : 12.0,
					"id" : "obj-482",
					"maxclass" : "newobj",
					"numinlets" : 1,
					"numoutlets" : 2,
					"outlettype" : [ "float", "bang" ],
					"patching_rect" : [ 593.0, 168.5, 141.0, 22.0 ],
					"style" : "",
					"text" : "buffer~ thegrain3 2000 2"
				}

			}
, 			{
				"box" : 				{
					"bgcolor" : [ 0.960784, 0.827451, 0.156863, 0.0 ],
					"fontname" : "Arial",
					"fontsize" : 12.0,
					"id" : "obj-485",
					"maxclass" : "comment",
					"numinlets" : 1,
					"numoutlets" : 0,
					"patching_rect" : [ 393.0, 761.5, 99.0, 20.0 ],
					"style" : "",
					"text" : "Grain amplitude:"
				}

			}
, 			{
				"box" : 				{
					"bgcolor" : [ 0.960784, 0.827451, 0.156863, 0.0 ],
					"fontname" : "Arial",
					"fontsize" : 12.0,
					"id" : "obj-486",
					"maxclass" : "comment",
					"numinlets" : 1,
					"numoutlets" : 0,
					"patching_rect" : [ 314.0, 553.5, 90.0, 20.0 ],
					"style" : "",
					"text" : "Grain duration:"
				}

			}
, 			{
				"box" : 				{
					"comment" : "",
					"id" : "obj-5",
					"maxclass" : "outlet",
					"numinlets" : 1,
					"numoutlets" : 0,
					"patching_rect" : [ 50.0, 1541.0, 30.0, 30.0 ],
					"style" : ""
				}

			}
, 			{
				"box" : 				{
					"comment" : "",
					"id" : "obj-6",
					"maxclass" : "outlet",
					"numinlets" : 1,
					"numoutlets" : 0,
					"patching_rect" : [ 160.0, 1541.0, 30.0, 30.0 ],
					"style" : ""
				}

			}
 ],
		"lines" : [ 			{
				"patchline" : 				{
					"destination" : [ "obj-429", 0 ],
					"disabled" : 0,
					"hidden" : 0,
					"source" : [ "obj-263", 0 ]
				}

			}
, 			{
				"patchline" : 				{
					"destination" : [ "obj-456", 0 ],
					"disabled" : 0,
					"hidden" : 0,
					"source" : [ "obj-339", 0 ]
				}

			}
, 			{
				"patchline" : 				{
					"destination" : [ "obj-455", 0 ],
					"disabled" : 0,
					"hidden" : 0,
					"source" : [ "obj-340", 0 ]
				}

			}
, 			{
				"patchline" : 				{
					"destination" : [ "obj-468", 0 ],
					"disabled" : 0,
					"hidden" : 0,
					"source" : [ "obj-341", 0 ]
				}

			}
, 			{
				"patchline" : 				{
					"destination" : [ "obj-470", 0 ],
					"disabled" : 0,
					"hidden" : 0,
					"source" : [ "obj-342", 0 ]
				}

			}
, 			{
				"patchline" : 				{
					"destination" : [ "obj-447", 0 ],
					"disabled" : 0,
					"hidden" : 0,
					"source" : [ "obj-343", 0 ]
				}

			}
, 			{
				"patchline" : 				{
					"destination" : [ "obj-444", 0 ],
					"disabled" : 0,
					"hidden" : 0,
					"source" : [ "obj-344", 0 ]
				}

			}
, 			{
				"patchline" : 				{
					"destination" : [ "obj-446", 0 ],
					"disabled" : 0,
					"hidden" : 0,
					"source" : [ "obj-345", 0 ]
				}

			}
, 			{
				"patchline" : 				{
					"destination" : [ "obj-445", 0 ],
					"disabled" : 0,
					"hidden" : 0,
					"source" : [ "obj-348", 0 ]
				}

			}
, 			{
				"patchline" : 				{
					"destination" : [ "obj-406", 0 ],
					"disabled" : 0,
					"hidden" : 0,
					"source" : [ "obj-349", 0 ]
				}

			}
, 			{
				"patchline" : 				{
					"destination" : [ "obj-366", 0 ],
					"disabled" : 0,
					"hidden" : 0,
					"source" : [ "obj-360", 0 ]
				}

			}
, 			{
				"patchline" : 				{
					"destination" : [ "obj-364", 0 ],
					"disabled" : 0,
					"hidden" : 0,
					"midpoints" : [ 814.0, 1395.5, 734.0, 1395.5 ],
					"source" : [ "obj-362", 0 ]
				}

			}
, 			{
				"patchline" : 				{
					"destination" : [ "obj-359", 0 ],
					"disabled" : 0,
					"hidden" : 0,
					"source" : [ "obj-363", 0 ]
				}

			}
, 			{
				"patchline" : 				{
					"destination" : [ "obj-363", 0 ],
					"disabled" : 0,
					"hidden" : 0,
					"midpoints" : [ 734.0, 1369.5, 734.0, 1369.5 ],
					"source" : [ "obj-364", 0 ]
				}

			}
, 			{
				"patchline" : 				{
					"destination" : [ "obj-364", 0 ],
					"disabled" : 0,
					"hidden" : 0,
					"midpoints" : [ 734.0, 1330.5, 734.0, 1330.5 ],
					"source" : [ "obj-366", 0 ]
				}

			}
, 			{
				"patchline" : 				{
					"destination" : [ "obj-374", 0 ],
					"disabled" : 0,
					"hidden" : 0,
					"source" : [ "obj-370", 0 ]
				}

			}
, 			{
				"patchline" : 				{
					"destination" : [ "obj-373", 0 ],
					"disabled" : 0,
					"hidden" : 0,
					"midpoints" : [ 949.5, 1110.0, 904.0, 1110.0 ],
					"source" : [ "obj-371", 0 ]
				}

			}
, 			{
				"patchline" : 				{
					"destination" : [ "obj-369", 0 ],
					"disabled" : 0,
					"hidden" : 0,
					"source" : [ "obj-372", 0 ]
				}

			}
, 			{
				"patchline" : 				{
					"destination" : [ "obj-372", 0 ],
					"disabled" : 0,
					"hidden" : 0,
					"midpoints" : [ 904.0, 1127.0, 904.0, 1127.0 ],
					"source" : [ "obj-373", 0 ]
				}

			}
, 			{
				"patchline" : 				{
					"destination" : [ "obj-373", 0 ],
					"disabled" : 0,
					"hidden" : 0,
					"midpoints" : [ 904.0, 1088.0, 904.0, 1088.0 ],
					"source" : [ "obj-374", 0 ]
				}

			}
, 			{
				"patchline" : 				{
					"destination" : [ "obj-383", 0 ],
					"disabled" : 0,
					"hidden" : 0,
					"source" : [ "obj-378", 0 ]
				}

			}
, 			{
				"patchline" : 				{
					"destination" : [ "obj-382", 0 ],
					"disabled" : 0,
					"hidden" : 0,
					"midpoints" : [ 759.0, 796.5, 733.0, 796.5 ],
					"source" : [ "obj-380", 0 ]
				}

			}
, 			{
				"patchline" : 				{
					"destination" : [ "obj-379", 0 ],
					"disabled" : 0,
					"hidden" : 0,
					"source" : [ "obj-381", 0 ]
				}

			}
, 			{
				"patchline" : 				{
					"destination" : [ "obj-381", 0 ],
					"disabled" : 0,
					"hidden" : 0,
					"midpoints" : [ 733.0, 862.5, 733.0, 862.5 ],
					"source" : [ "obj-382", 0 ]
				}

			}
, 			{
				"patchline" : 				{
					"destination" : [ "obj-382", 0 ],
					"disabled" : 0,
					"hidden" : 0,
					"midpoints" : [ 738.0, 818.5, 722.5, 818.5, 722.5, 839.5, 733.0, 839.5 ],
					"source" : [ "obj-383", 0 ]
				}

			}
, 			{
				"patchline" : 				{
					"destination" : [ "obj-390", 0 ],
					"disabled" : 0,
					"hidden" : 0,
					"source" : [ "obj-385", 0 ]
				}

			}
, 			{
				"patchline" : 				{
					"destination" : [ "obj-389", 0 ],
					"disabled" : 0,
					"hidden" : 0,
					"midpoints" : [ 933.0, 796.5, 907.0, 796.5 ],
					"source" : [ "obj-387", 0 ]
				}

			}
, 			{
				"patchline" : 				{
					"destination" : [ "obj-386", 0 ],
					"disabled" : 0,
					"hidden" : 0,
					"source" : [ "obj-388", 0 ]
				}

			}
, 			{
				"patchline" : 				{
					"destination" : [ "obj-388", 0 ],
					"disabled" : 0,
					"hidden" : 0,
					"midpoints" : [ 907.0, 862.5, 907.0, 862.5 ],
					"source" : [ "obj-389", 0 ]
				}

			}
, 			{
				"patchline" : 				{
					"destination" : [ "obj-389", 0 ],
					"disabled" : 0,
					"hidden" : 0,
					"midpoints" : [ 912.0, 818.5, 896.5, 818.5, 896.5, 839.5, 907.0, 839.5 ],
					"source" : [ "obj-390", 0 ]
				}

			}
, 			{
				"patchline" : 				{
					"destination" : [ "obj-418", 0 ],
					"disabled" : 0,
					"hidden" : 0,
					"source" : [ "obj-391", 0 ]
				}

			}
, 			{
				"patchline" : 				{
					"destination" : [ "obj-414", 0 ],
					"disabled" : 0,
					"hidden" : 0,
					"source" : [ "obj-392", 0 ]
				}

			}
, 			{
				"patchline" : 				{
					"destination" : [ "obj-410", 0 ],
					"disabled" : 0,
					"hidden" : 0,
					"source" : [ "obj-393", 0 ]
				}

			}
, 			{
				"patchline" : 				{
					"destination" : [ "obj-401", 0 ],
					"disabled" : 0,
					"hidden" : 0,
					"source" : [ "obj-394", 0 ]
				}

			}
, 			{
				"patchline" : 				{
					"destination" : [ "obj-400", 0 ],
					"disabled" : 0,
					"hidden" : 0,
					"midpoints" : [ 882.5, 547.692505, 872.0, 547.692505 ],
					"source" : [ "obj-398", 0 ]
				}

			}
, 			{
				"patchline" : 				{
					"destination" : [ "obj-397", 0 ],
					"disabled" : 0,
					"hidden" : 0,
					"source" : [ "obj-399", 0 ]
				}

			}
, 			{
				"patchline" : 				{
					"destination" : [ "obj-399", 0 ],
					"disabled" : 0,
					"hidden" : 0,
					"midpoints" : [ 872.0, 598.692505, 872.0, 598.692505 ],
					"source" : [ "obj-400", 0 ]
				}

			}
, 			{
				"patchline" : 				{
					"destination" : [ "obj-400", 0 ],
					"disabled" : 0,
					"hidden" : 0,
					"midpoints" : [ 872.0, 559.692505, 872.0, 559.692505 ],
					"source" : [ "obj-401", 0 ]
				}

			}
, 			{
				"patchline" : 				{
					"destination" : [ "obj-405", 0 ],
					"disabled" : 0,
					"hidden" : 0,
					"midpoints" : [ 979.5, 1299.5, 909.0, 1299.5 ],
					"source" : [ "obj-403", 0 ]
				}

			}
, 			{
				"patchline" : 				{
					"destination" : [ "obj-352", 0 ],
					"disabled" : 0,
					"hidden" : 0,
					"source" : [ "obj-404", 0 ]
				}

			}
, 			{
				"patchline" : 				{
					"destination" : [ "obj-404", 0 ],
					"disabled" : 0,
					"hidden" : 0,
					"midpoints" : [ 909.0, 1347.5, 909.0, 1347.5 ],
					"source" : [ "obj-405", 0 ]
				}

			}
, 			{
				"patchline" : 				{
					"destination" : [ "obj-405", 0 ],
					"disabled" : 0,
					"hidden" : 0,
					"midpoints" : [ 909.0, 1299.5, 909.0, 1299.5 ],
					"source" : [ "obj-406", 0 ]
				}

			}
, 			{
				"patchline" : 				{
					"destination" : [ "obj-409", 0 ],
					"disabled" : 0,
					"hidden" : 0,
					"midpoints" : [ 529.5, 987.5, 529.5, 987.5 ],
					"source" : [ "obj-407", 0 ]
				}

			}
, 			{
				"patchline" : 				{
					"destination" : [ "obj-367", 0 ],
					"disabled" : 0,
					"hidden" : 0,
					"source" : [ "obj-408", 0 ]
				}

			}
, 			{
				"patchline" : 				{
					"destination" : [ "obj-408", 0 ],
					"disabled" : 0,
					"hidden" : 0,
					"midpoints" : [ 529.5, 1106.5, 529.5, 1106.5 ],
					"source" : [ "obj-409", 0 ]
				}

			}
, 			{
				"patchline" : 				{
					"destination" : [ "obj-409", 0 ],
					"disabled" : 0,
					"hidden" : 0,
					"midpoints" : [ 529.5, 1052.5, 529.5, 1052.5 ],
					"source" : [ "obj-410", 0 ]
				}

			}
, 			{
				"patchline" : 				{
					"destination" : [ "obj-413", 0 ],
					"disabled" : 0,
					"hidden" : 0,
					"midpoints" : [ 775.5, 1110.0, 730.0, 1110.0 ],
					"source" : [ "obj-411", 0 ]
				}

			}
, 			{
				"patchline" : 				{
					"destination" : [ "obj-376", 0 ],
					"disabled" : 0,
					"hidden" : 0,
					"source" : [ "obj-412", 0 ]
				}

			}
, 			{
				"patchline" : 				{
					"destination" : [ "obj-412", 0 ],
					"disabled" : 0,
					"hidden" : 0,
					"midpoints" : [ 730.0, 1127.0, 730.0, 1127.0 ],
					"source" : [ "obj-413", 0 ]
				}

			}
, 			{
				"patchline" : 				{
					"destination" : [ "obj-413", 0 ],
					"disabled" : 0,
					"hidden" : 0,
					"midpoints" : [ 730.0, 1088.0, 730.0, 1088.0 ],
					"source" : [ "obj-414", 0 ]
				}

			}
, 			{
				"patchline" : 				{
					"destination" : [ "obj-417", 0 ],
					"disabled" : 0,
					"hidden" : 0,
					"midpoints" : [ 742.0, 524.692505, 716.0, 524.692505 ],
					"source" : [ "obj-415", 0 ]
				}

			}
, 			{
				"patchline" : 				{
					"destination" : [ "obj-402", 0 ],
					"disabled" : 0,
					"hidden" : 0,
					"source" : [ "obj-416", 0 ]
				}

			}
, 			{
				"patchline" : 				{
					"destination" : [ "obj-416", 0 ],
					"disabled" : 0,
					"hidden" : 0,
					"midpoints" : [ 716.0, 590.692505, 716.0, 590.692505 ],
					"source" : [ "obj-417", 0 ]
				}

			}
, 			{
				"patchline" : 				{
					"destination" : [ "obj-417", 0 ],
					"disabled" : 0,
					"hidden" : 0,
					"midpoints" : [ 721.0, 546.692505, 705.5, 546.692505, 705.5, 567.692505, 716.0, 567.692505 ],
					"source" : [ "obj-418", 0 ]
				}

			}
, 			{
				"patchline" : 				{
					"destination" : [ "obj-466", 0 ],
					"disabled" : 0,
					"hidden" : 0,
					"source" : [ "obj-419", 0 ]
				}

			}
, 			{
				"patchline" : 				{
					"destination" : [ "obj-478", 2 ],
					"disabled" : 0,
					"hidden" : 0,
					"midpoints" : [ 757.5, 222.5, 763.0, 222.5 ],
					"source" : [ "obj-424", 0 ]
				}

			}
, 			{
				"patchline" : 				{
					"destination" : [ "obj-424", 0 ],
					"disabled" : 0,
					"hidden" : 0,
					"midpoints" : [ 757.5, 192.5, 757.5, 192.5 ],
					"source" : [ "obj-425", 0 ]
				}

			}
, 			{
				"patchline" : 				{
					"destination" : [ "obj-487", 0 ],
					"disabled" : 0,
					"hidden" : 0,
					"midpoints" : [ 164.5, 447.5, 59.5, 447.5 ],
					"source" : [ "obj-429", 0 ]
				}

			}
, 			{
				"patchline" : 				{
					"destination" : [ "obj-482", 0 ],
					"disabled" : 0,
					"hidden" : 0,
					"midpoints" : [ 902.5, 162.5, 833.0, 162.5, 833.0, 114.5, 665.0, 114.5, 665.0, 153.5, 602.5, 153.5 ],
					"source" : [ "obj-430", 0 ]
				}

			}
, 			{
				"patchline" : 				{
					"destination" : [ "obj-463", 0 ],
					"disabled" : 0,
					"hidden" : 0,
					"midpoints" : [ 534.5, 510.5, 534.5, 510.5 ],
					"source" : [ "obj-444", 0 ]
				}

			}
, 			{
				"patchline" : 				{
					"destination" : [ "obj-464", 0 ],
					"disabled" : 0,
					"hidden" : 0,
					"midpoints" : [ 424.0, 510.5, 424.0, 510.5 ],
					"source" : [ "obj-445", 0 ]
				}

			}
, 			{
				"patchline" : 				{
					"destination" : [ "obj-471", 0 ],
					"disabled" : 0,
					"hidden" : 0,
					"midpoints" : [ 534.5, 609.5, 534.5, 609.5 ],
					"source" : [ "obj-446", 0 ]
				}

			}
, 			{
				"patchline" : 				{
					"destination" : [ "obj-472", 0 ],
					"disabled" : 0,
					"hidden" : 0,
					"midpoints" : [ 424.0, 609.5, 424.0, 609.5 ],
					"source" : [ "obj-447", 0 ]
				}

			}
, 			{
				"patchline" : 				{
					"destination" : [ "obj-449", 0 ],
					"disabled" : 0,
					"hidden" : 0,
					"midpoints" : [ 605.5, 807.5, 605.5, 807.5 ],
					"source" : [ "obj-448", 0 ]
				}

			}
, 			{
				"patchline" : 				{
					"destination" : [ "obj-452", 0 ],
					"disabled" : 0,
					"hidden" : 0,
					"midpoints" : [ 505.5, 807.5, 505.5, 807.5 ],
					"source" : [ "obj-450", 0 ]
				}

			}
, 			{
				"patchline" : 				{
					"destination" : [ "obj-453", 0 ],
					"disabled" : 0,
					"hidden" : 0,
					"midpoints" : [ 402.5, 807.5, 402.5, 807.5 ],
					"source" : [ "obj-451", 0 ]
				}

			}
, 			{
				"patchline" : 				{
					"destination" : [ "obj-457", 0 ],
					"disabled" : 0,
					"hidden" : 0,
					"midpoints" : [ 65.0, 357.5, 65.0, 357.5 ],
					"source" : [ "obj-454", 0 ]
				}

			}
, 			{
				"patchline" : 				{
					"destination" : [ "obj-474", 0 ],
					"disabled" : 0,
					"hidden" : 0,
					"midpoints" : [ 710.300049, 390.5, 710.300049, 390.5 ],
					"source" : [ "obj-455", 0 ]
				}

			}
, 			{
				"patchline" : 				{
					"destination" : [ "obj-473", 0 ],
					"disabled" : 0,
					"hidden" : 0,
					"midpoints" : [ 802.5, 384.5, 802.5, 384.5 ],
					"source" : [ "obj-456", 0 ]
				}

			}
, 			{
				"patchline" : 				{
					"destination" : [ "obj-487", 0 ],
					"disabled" : 0,
					"hidden" : 0,
					"midpoints" : [ 65.0, 453.5, 59.5, 453.5 ],
					"source" : [ "obj-457", 0 ]
				}

			}
, 			{
				"patchline" : 				{
					"destination" : [ "obj-466", 1 ],
					"disabled" : 0,
					"hidden" : 0,
					"midpoints" : [ 167.5, 303.5, 143.0, 303.5, 143.0, 171.5, 213.5, 171.5 ],
					"source" : [ "obj-458", 0 ]
				}

			}
, 			{
				"patchline" : 				{
					"destination" : [ "obj-458", 0 ],
					"disabled" : 0,
					"hidden" : 0,
					"midpoints" : [ 249.5, 297.5, 230.0, 297.5, 230.0, 264.5, 167.5, 264.5 ],
					"source" : [ "obj-459", 0 ]
				}

			}
, 			{
				"patchline" : 				{
					"destination" : [ "obj-459", 0 ],
					"disabled" : 0,
					"hidden" : 0,
					"midpoints" : [ 249.5, 252.5, 249.5, 252.5 ],
					"source" : [ "obj-460", 0 ]
				}

			}
, 			{
				"patchline" : 				{
					"destination" : [ "obj-459", 4 ],
					"disabled" : 0,
					"hidden" : 0,
					"midpoints" : [ 371.5, 276.5, 371.1, 276.5 ],
					"source" : [ "obj-461", 0 ]
				}

			}
, 			{
				"patchline" : 				{
					"destination" : [ "obj-459", 3 ],
					"disabled" : 0,
					"hidden" : 0,
					"midpoints" : [ 340.5, 252.5, 340.7, 252.5 ],
					"source" : [ "obj-462", 0 ]
				}

			}
, 			{
				"patchline" : 				{
					"destination" : [ "obj-487", 0 ],
					"disabled" : 0,
					"hidden" : 0,
					"midpoints" : [ 167.5, 264.5, 125.0, 264.5, 125.0, 453.5, 59.5, 453.5 ],
					"source" : [ "obj-465", 0 ]
				}

			}
, 			{
				"patchline" : 				{
					"destination" : [ "obj-460", 0 ],
					"disabled" : 0,
					"hidden" : 0,
					"midpoints" : [ 167.5, 216.5, 249.5, 216.5 ],
					"source" : [ "obj-466", 0 ]
				}

			}
, 			{
				"patchline" : 				{
					"destination" : [ "obj-465", 0 ],
					"disabled" : 0,
					"hidden" : 0,
					"midpoints" : [ 167.5, 207.5, 167.5, 207.5 ],
					"source" : [ "obj-466", 0 ]
				}

			}
, 			{
				"patchline" : 				{
					"destination" : [ "obj-467", 0 ],
					"disabled" : 0,
					"hidden" : 0,
					"midpoints" : [ 541.0, 711.5, 541.0, 711.5 ],
					"source" : [ "obj-468", 0 ]
				}

			}
, 			{
				"patchline" : 				{
					"destination" : [ "obj-469", 0 ],
					"disabled" : 0,
					"hidden" : 0,
					"midpoints" : [ 430.5, 711.5, 430.5, 711.5 ],
					"source" : [ "obj-470", 0 ]
				}

			}
, 			{
				"patchline" : 				{
					"destination" : [ "obj-477", 0 ],
					"disabled" : 0,
					"hidden" : 0,
					"midpoints" : [ 502.5, 306.5, 557.0, 306.5, 557.0, 297.5, 571.5, 297.5 ],
					"source" : [ "obj-475", 0 ]
				}

			}
, 			{
				"patchline" : 				{
					"destination" : [ "obj-478", 0 ],
					"disabled" : 0,
					"hidden" : 0,
					"midpoints" : [ 502.5, 228.5, 566.0, 228.5, 566.0, 225.5, 578.5, 225.5 ],
					"source" : [ "obj-476", 0 ]
				}

			}
, 			{
				"patchline" : 				{
					"destination" : [ "obj-455", 0 ],
					"disabled" : 0,
					"hidden" : 0,
					"midpoints" : [ 721.9, 354.5, 710.300049, 354.5 ],
					"source" : [ "obj-477", 2 ]
				}

			}
, 			{
				"patchline" : 				{
					"destination" : [ "obj-456", 0 ],
					"disabled" : 0,
					"hidden" : 0,
					"midpoints" : [ 797.1, 354.5, 802.5, 354.5 ],
					"source" : [ "obj-477", 3 ]
				}

			}
, 			{
				"patchline" : 				{
					"destination" : [ "obj-478", 4 ],
					"disabled" : 0,
					"hidden" : 0,
					"midpoints" : [ 947.5, 354.5, 968.0, 354.5, 968.0, 225.5, 947.5, 225.5 ],
					"source" : [ "obj-477", 5 ]
				}

			}
, 			{
				"patchline" : 				{
					"destination" : [ "obj-477", 4 ],
					"disabled" : 0,
					"hidden" : 0,
					"midpoints" : [ 947.5, 276.5, 947.5, 276.5 ],
					"source" : [ "obj-478", 5 ]
				}

			}
, 			{
				"patchline" : 				{
					"destination" : [ "obj-482", 0 ],
					"disabled" : 0,
					"hidden" : 0,
					"midpoints" : [ 711.5, 153.5, 602.5, 153.5 ],
					"source" : [ "obj-479", 0 ]
				}

			}
, 			{
				"patchline" : 				{
					"destination" : [ "obj-482", 0 ],
					"disabled" : 0,
					"hidden" : 0,
					"midpoints" : [ 516.5, 162.5, 602.5, 162.5 ],
					"source" : [ "obj-480", 0 ]
				}

			}
, 			{
				"patchline" : 				{
					"destination" : [ "obj-480", 0 ],
					"disabled" : 0,
					"hidden" : 0,
					"midpoints" : [ 602.5, 126.5, 516.5, 126.5 ],
					"source" : [ "obj-481", 0 ]
				}

			}
, 			{
				"patchline" : 				{
					"destination" : [ "obj-475", 0 ],
					"disabled" : 0,
					"hidden" : 0,
					"midpoints" : [ 724.5, 216.5, 656.0, 216.5, 656.0, 225.5, 554.0, 225.5, 554.0, 261.5, 502.5, 261.5 ],
					"source" : [ "obj-482", 1 ]
				}

			}
, 			{
				"patchline" : 				{
					"destination" : [ "obj-476", 0 ],
					"disabled" : 0,
					"hidden" : 0,
					"midpoints" : [ 724.5, 201.5, 656.0, 201.5, 656.0, 192.5, 502.5, 192.5 ],
					"source" : [ "obj-482", 1 ]
				}

			}
, 			{
				"patchline" : 				{
					"destination" : [ "obj-5", 0 ],
					"disabled" : 0,
					"hidden" : 0,
					"source" : [ "obj-487", 0 ]
				}

			}
, 			{
				"patchline" : 				{
					"destination" : [ "obj-6", 0 ],
					"disabled" : 0,
					"hidden" : 0,
					"source" : [ "obj-487", 1 ]
				}

			}
 ],
		"styles" : [ 			{
				"name" : "newobjBlue-1",
				"default" : 				{
					"accentcolor" : [ 0.317647, 0.654902, 0.976471, 1.0 ]
				}
,
				"parentstyle" : "",
				"multi" : 0
			}
, 			{
				"name" : "newobjBlue-2",
				"default" : 				{
					"accentcolor" : [ 0.317647, 0.654902, 0.976471, 1.0 ]
				}
,
				"parentstyle" : "",
				"multi" : 0
			}
, 			{
				"name" : "newobjCyan-1",
				"default" : 				{
					"accentcolor" : [ 0.029546, 0.773327, 0.821113, 1.0 ]
				}
,
				"parentstyle" : "",
				"multi" : 0
			}
, 			{
				"name" : "newobjCyan-2",
				"default" : 				{
					"accentcolor" : [ 0.029546, 0.773327, 0.821113, 1.0 ]
				}
,
				"parentstyle" : "",
				"multi" : 0
			}
, 			{
				"name" : "newobjGreen-1",
				"default" : 				{
					"accentcolor" : [ 0.0, 0.533333, 0.168627, 1.0 ]
				}
,
				"parentstyle" : "",
				"multi" : 0
			}
, 			{
				"name" : "newobjGreen-2",
				"default" : 				{
					"accentcolor" : [ 0.0, 0.533333, 0.168627, 1.0 ]
				}
,
				"parentstyle" : "",
				"multi" : 0
			}
, 			{
				"name" : "newobjMagenta-1",
				"default" : 				{
					"accentcolor" : [ 0.840663, 0.060168, 0.769195, 1.0 ]
				}
,
				"parentstyle" : "",
				"multi" : 0
			}
, 			{
				"name" : "newobjMagenta-2",
				"default" : 				{
					"accentcolor" : [ 0.840663, 0.060168, 0.769195, 1.0 ]
				}
,
				"parentstyle" : "",
				"multi" : 0
			}
, 			{
				"name" : "newobjYellow-1",
				"default" : 				{
					"accentcolor" : [ 0.82517, 0.78181, 0.059545, 1.0 ],
					"fontsize" : [ 12.059008 ]
				}
,
				"parentstyle" : "",
				"multi" : 0
			}
, 			{
				"name" : "newobjYellow-2",
				"default" : 				{
					"accentcolor" : [ 0.82517, 0.78181, 0.059545, 1.0 ],
					"fontsize" : [ 12.059008 ]
				}
,
				"parentstyle" : "",
				"multi" : 0
			}
 ]
	}

}
